<mxfile host="app.diagrams.net" modified="2021-08-25T13:49:22.010Z" agent="5.0 (Windows NT 10.0; Win64; x64) AppleWebKit/537.36 (KHTML, like Gecko) Chrome/83.0.4103.97 Safari/537.36" etag="M7I8tFc7VoexoDMzWWWU" version="14.9.8" type="github">
  <diagram id="jQFlyxq-77XEo87QrLzG" name="Page-1">
    <mxGraphModel dx="821" dy="841" grid="1" gridSize="10" guides="1" tooltips="1" connect="1" arrows="1" fold="1" page="1" pageScale="1" pageWidth="850" pageHeight="1100" math="0" shadow="0">
      <root>
        <mxCell id="0" />
        <mxCell id="1" parent="0" />
        <mxCell id="1lAz4BmTCdN_ynABg-sg-55" value="" style="shape=parallelogram;perimeter=parallelogramPerimeter;whiteSpace=wrap;html=1;fixedSize=1;strokeWidth=2;size=100;dashed=1;fillColor=#f5f5f5;strokeColor=#666666;fontColor=#333333;" vertex="1" parent="1">
          <mxGeometry x="490" y="180" width="170" height="279.75" as="geometry" />
        </mxCell>
        <mxCell id="1lAz4BmTCdN_ynABg-sg-1" value="" style="endArrow=none;html=1;strokeWidth=3;" edge="1" parent="1">
          <mxGeometry width="50" height="50" relative="1" as="geometry">
            <mxPoint x="260" y="200" as="sourcePoint" />
            <mxPoint x="1210" y="200" as="targetPoint" />
          </mxGeometry>
        </mxCell>
        <mxCell id="1lAz4BmTCdN_ynABg-sg-2" value="" style="endArrow=none;html=1;strokeWidth=3;" edge="1" parent="1">
          <mxGeometry width="50" height="50" relative="1" as="geometry">
            <mxPoint x="260" y="440" as="sourcePoint" />
            <mxPoint x="1210" y="440" as="targetPoint" />
          </mxGeometry>
        </mxCell>
        <mxCell id="1lAz4BmTCdN_ynABg-sg-3" value="" style="endArrow=none;html=1;strokeWidth=3;" edge="1" parent="1">
          <mxGeometry width="50" height="50" relative="1" as="geometry">
            <mxPoint x="260" y="360" as="sourcePoint" />
            <mxPoint x="1210" y="350" as="targetPoint" />
          </mxGeometry>
        </mxCell>
        <mxCell id="1lAz4BmTCdN_ynABg-sg-4" value="" style="endArrow=none;html=1;strokeWidth=3;" edge="1" parent="1">
          <mxGeometry width="50" height="50" relative="1" as="geometry">
            <mxPoint x="260" y="280" as="sourcePoint" />
            <mxPoint x="1210" y="280" as="targetPoint" />
          </mxGeometry>
        </mxCell>
        <mxCell id="1lAz4BmTCdN_ynABg-sg-35" style="edgeStyle=none;rounded=0;orthogonalLoop=1;jettySize=auto;html=1;exitX=1;exitY=0.5;exitDx=0;exitDy=0;entryX=0;entryY=0.5;entryDx=0;entryDy=0;startArrow=none;startFill=0;strokeWidth=1;" edge="1" parent="1" source="1lAz4BmTCdN_ynABg-sg-5" target="1lAz4BmTCdN_ynABg-sg-6">
          <mxGeometry relative="1" as="geometry" />
        </mxCell>
        <mxCell id="1lAz4BmTCdN_ynABg-sg-36" style="edgeStyle=orthogonalEdgeStyle;rounded=0;orthogonalLoop=1;jettySize=auto;html=1;exitX=1;exitY=0.5;exitDx=0;exitDy=0;entryX=0;entryY=0.5;entryDx=0;entryDy=0;startArrow=none;startFill=0;strokeWidth=1;" edge="1" parent="1" source="1lAz4BmTCdN_ynABg-sg-5" target="1lAz4BmTCdN_ynABg-sg-7">
          <mxGeometry relative="1" as="geometry" />
        </mxCell>
        <mxCell id="1lAz4BmTCdN_ynABg-sg-37" style="edgeStyle=orthogonalEdgeStyle;rounded=0;orthogonalLoop=1;jettySize=auto;html=1;exitX=1;exitY=0.5;exitDx=0;exitDy=0;entryX=0;entryY=0.5;entryDx=0;entryDy=0;startArrow=none;startFill=0;strokeWidth=1;" edge="1" parent="1" source="1lAz4BmTCdN_ynABg-sg-5" target="1lAz4BmTCdN_ynABg-sg-8">
          <mxGeometry relative="1" as="geometry">
            <Array as="points">
              <mxPoint x="280" y="323" />
              <mxPoint x="280" y="403" />
            </Array>
          </mxGeometry>
        </mxCell>
        <mxCell id="1lAz4BmTCdN_ynABg-sg-5" value="&lt;font style=&quot;font-size: 17px&quot;&gt;&lt;b&gt;时空参数&lt;br&gt;（T and/or L）&lt;/b&gt;&lt;/font&gt;" style="shape=parallelogram;perimeter=parallelogramPerimeter;whiteSpace=wrap;html=1;fixedSize=1;strokeWidth=2;" vertex="1" parent="1">
          <mxGeometry x="120" y="292.25" width="130" height="60" as="geometry" />
        </mxCell>
        <mxCell id="1lAz4BmTCdN_ynABg-sg-39" style="edgeStyle=orthogonalEdgeStyle;rounded=0;orthogonalLoop=1;jettySize=auto;html=1;exitX=1;exitY=0.5;exitDx=0;exitDy=0;startArrow=none;startFill=0;strokeWidth=1;" edge="1" parent="1" source="1lAz4BmTCdN_ynABg-sg-6">
          <mxGeometry relative="1" as="geometry">
            <mxPoint x="550" y="323" as="targetPoint" />
          </mxGeometry>
        </mxCell>
        <mxCell id="1lAz4BmTCdN_ynABg-sg-6" value="&lt;font style=&quot;font-size: 17px&quot;&gt;&lt;b&gt;参数为T and L&lt;/b&gt;&lt;/font&gt;" style="rhombus;whiteSpace=wrap;html=1;strokeWidth=2;" vertex="1" parent="1">
          <mxGeometry x="310" y="290" width="150" height="65" as="geometry" />
        </mxCell>
        <mxCell id="1lAz4BmTCdN_ynABg-sg-38" style="edgeStyle=orthogonalEdgeStyle;rounded=0;orthogonalLoop=1;jettySize=auto;html=1;exitX=1;exitY=0.5;exitDx=0;exitDy=0;startArrow=none;startFill=0;strokeWidth=1;" edge="1" parent="1" source="1lAz4BmTCdN_ynABg-sg-7">
          <mxGeometry relative="1" as="geometry">
            <mxPoint x="520" y="243" as="targetPoint" />
          </mxGeometry>
        </mxCell>
        <mxCell id="1lAz4BmTCdN_ynABg-sg-7" value="&lt;font style=&quot;font-size: 17px&quot;&gt;&lt;b&gt;参数为T&amp;nbsp;&lt;/b&gt;&lt;/font&gt;" style="rhombus;whiteSpace=wrap;html=1;strokeWidth=2;" vertex="1" parent="1">
          <mxGeometry x="310" y="210" width="150" height="65" as="geometry" />
        </mxCell>
        <mxCell id="1lAz4BmTCdN_ynABg-sg-40" style="edgeStyle=orthogonalEdgeStyle;rounded=0;orthogonalLoop=1;jettySize=auto;html=1;exitX=1;exitY=0.5;exitDx=0;exitDy=0;startArrow=none;startFill=0;strokeWidth=1;" edge="1" parent="1" source="1lAz4BmTCdN_ynABg-sg-8">
          <mxGeometry relative="1" as="geometry">
            <mxPoint x="500" y="403" as="targetPoint" />
          </mxGeometry>
        </mxCell>
        <mxCell id="1lAz4BmTCdN_ynABg-sg-8" value="&lt;font style=&quot;font-size: 17px&quot;&gt;&lt;b&gt;参数为L&lt;/b&gt;&lt;/font&gt;" style="rhombus;whiteSpace=wrap;html=1;strokeWidth=2;" vertex="1" parent="1">
          <mxGeometry x="310" y="370" width="150" height="65" as="geometry" />
        </mxCell>
        <mxCell id="1lAz4BmTCdN_ynABg-sg-14" style="rounded=0;orthogonalLoop=1;jettySize=auto;html=1;strokeWidth=1;dashed=1;startArrow=classic;startFill=1;exitX=0;exitY=1;exitDx=0;exitDy=0;" edge="1" parent="1" source="1lAz4BmTCdN_ynABg-sg-11" target="1lAz4BmTCdN_ynABg-sg-12">
          <mxGeometry relative="1" as="geometry">
            <mxPoint x="552" y="250" as="sourcePoint" />
          </mxGeometry>
        </mxCell>
        <mxCell id="1lAz4BmTCdN_ynABg-sg-15" style="edgeStyle=none;rounded=0;orthogonalLoop=1;jettySize=auto;html=1;entryX=0.5;entryY=0;entryDx=0;entryDy=0;startArrow=classic;startFill=1;strokeWidth=1;" edge="1" parent="1" target="1lAz4BmTCdN_ynABg-sg-13">
          <mxGeometry relative="1" as="geometry">
            <mxPoint x="620" y="250" as="sourcePoint" />
          </mxGeometry>
        </mxCell>
        <mxCell id="1lAz4BmTCdN_ynABg-sg-41" style="edgeStyle=orthogonalEdgeStyle;rounded=0;orthogonalLoop=1;jettySize=auto;html=1;exitX=1;exitY=0.5;exitDx=0;exitDy=0;startArrow=none;startFill=0;strokeWidth=1;" edge="1" parent="1" source="1lAz4BmTCdN_ynABg-sg-11">
          <mxGeometry relative="1" as="geometry">
            <mxPoint x="700" y="235" as="targetPoint" />
          </mxGeometry>
        </mxCell>
        <mxCell id="1lAz4BmTCdN_ynABg-sg-11" value="&lt;font style=&quot;font-size: 17px&quot;&gt;&lt;b&gt;T1&lt;/b&gt;&lt;/font&gt;" style="ellipse;whiteSpace=wrap;html=1;aspect=fixed;strokeWidth=2;" vertex="1" parent="1">
          <mxGeometry x="580" y="210" width="50" height="50" as="geometry" />
        </mxCell>
        <mxCell id="1lAz4BmTCdN_ynABg-sg-12" value="&lt;font style=&quot;font-size: 17px&quot;&gt;&lt;b&gt;L1&lt;/b&gt;&lt;/font&gt;" style="ellipse;whiteSpace=wrap;html=1;aspect=fixed;strokeWidth=2;" vertex="1" parent="1">
          <mxGeometry x="520" y="377.5" width="50" height="50" as="geometry" />
        </mxCell>
        <mxCell id="1lAz4BmTCdN_ynABg-sg-16" style="edgeStyle=none;rounded=0;orthogonalLoop=1;jettySize=auto;html=1;exitX=0;exitY=1;exitDx=0;exitDy=0;entryX=1;entryY=0.5;entryDx=0;entryDy=0;startArrow=classic;startFill=1;strokeWidth=1;" edge="1" parent="1" source="1lAz4BmTCdN_ynABg-sg-13" target="1lAz4BmTCdN_ynABg-sg-12">
          <mxGeometry relative="1" as="geometry" />
        </mxCell>
        <mxCell id="1lAz4BmTCdN_ynABg-sg-42" style="edgeStyle=orthogonalEdgeStyle;rounded=0;orthogonalLoop=1;jettySize=auto;html=1;exitX=1;exitY=0.5;exitDx=0;exitDy=0;startArrow=none;startFill=0;strokeWidth=1;" edge="1" parent="1">
          <mxGeometry relative="1" as="geometry">
            <mxPoint x="750" y="312" as="targetPoint" />
            <mxPoint x="680" y="312" as="sourcePoint" />
          </mxGeometry>
        </mxCell>
        <mxCell id="1lAz4BmTCdN_ynABg-sg-13" value="&lt;font style=&quot;font-size: 17px&quot;&gt;&lt;b&gt;E1&lt;/b&gt;&lt;/font&gt;" style="ellipse;whiteSpace=wrap;html=1;aspect=fixed;strokeWidth=2;" vertex="1" parent="1">
          <mxGeometry x="630" y="290" width="50" height="50" as="geometry" />
        </mxCell>
        <mxCell id="1lAz4BmTCdN_ynABg-sg-17" style="rounded=0;orthogonalLoop=1;jettySize=auto;html=1;strokeWidth=1;dashed=1;startArrow=classic;startFill=1;exitX=0;exitY=1;exitDx=0;exitDy=0;" edge="1" parent="1" source="1lAz4BmTCdN_ynABg-sg-19" target="1lAz4BmTCdN_ynABg-sg-20">
          <mxGeometry relative="1" as="geometry">
            <mxPoint x="702" y="253.25" as="sourcePoint" />
          </mxGeometry>
        </mxCell>
        <mxCell id="1lAz4BmTCdN_ynABg-sg-18" style="edgeStyle=none;rounded=0;orthogonalLoop=1;jettySize=auto;html=1;entryX=0.5;entryY=0;entryDx=0;entryDy=0;startArrow=classic;startFill=1;strokeWidth=1;" edge="1" parent="1" target="1lAz4BmTCdN_ynABg-sg-22">
          <mxGeometry relative="1" as="geometry">
            <mxPoint x="770" y="253.25" as="sourcePoint" />
          </mxGeometry>
        </mxCell>
        <mxCell id="1lAz4BmTCdN_ynABg-sg-43" style="edgeStyle=orthogonalEdgeStyle;rounded=0;orthogonalLoop=1;jettySize=auto;html=1;exitX=1;exitY=0.5;exitDx=0;exitDy=0;startArrow=none;startFill=0;strokeWidth=1;" edge="1" parent="1" source="1lAz4BmTCdN_ynABg-sg-19">
          <mxGeometry relative="1" as="geometry">
            <mxPoint x="850" y="238" as="targetPoint" />
          </mxGeometry>
        </mxCell>
        <mxCell id="1lAz4BmTCdN_ynABg-sg-19" value="&lt;font style=&quot;font-size: 17px&quot;&gt;&lt;b&gt;T2&lt;/b&gt;&lt;/font&gt;" style="ellipse;whiteSpace=wrap;html=1;aspect=fixed;strokeWidth=2;" vertex="1" parent="1">
          <mxGeometry x="730" y="213.25" width="50" height="50" as="geometry" />
        </mxCell>
        <mxCell id="1lAz4BmTCdN_ynABg-sg-20" value="&lt;font style=&quot;font-size: 17px&quot;&gt;&lt;b&gt;L2&lt;/b&gt;&lt;/font&gt;" style="ellipse;whiteSpace=wrap;html=1;aspect=fixed;strokeWidth=2;" vertex="1" parent="1">
          <mxGeometry x="670" y="380.75" width="50" height="50" as="geometry" />
        </mxCell>
        <mxCell id="1lAz4BmTCdN_ynABg-sg-21" style="edgeStyle=none;rounded=0;orthogonalLoop=1;jettySize=auto;html=1;exitX=0;exitY=1;exitDx=0;exitDy=0;entryX=1;entryY=0.5;entryDx=0;entryDy=0;startArrow=classic;startFill=1;strokeWidth=1;" edge="1" parent="1" source="1lAz4BmTCdN_ynABg-sg-22" target="1lAz4BmTCdN_ynABg-sg-20">
          <mxGeometry relative="1" as="geometry" />
        </mxCell>
        <mxCell id="1lAz4BmTCdN_ynABg-sg-44" style="edgeStyle=orthogonalEdgeStyle;rounded=0;orthogonalLoop=1;jettySize=auto;html=1;exitX=1;exitY=0.5;exitDx=0;exitDy=0;startArrow=none;startFill=0;strokeWidth=1;" edge="1" parent="1" source="1lAz4BmTCdN_ynABg-sg-22">
          <mxGeometry relative="1" as="geometry">
            <mxPoint x="900" y="318" as="targetPoint" />
          </mxGeometry>
        </mxCell>
        <mxCell id="1lAz4BmTCdN_ynABg-sg-22" value="&lt;font style=&quot;font-size: 17px&quot;&gt;&lt;b&gt;E2&lt;/b&gt;&lt;/font&gt;" style="ellipse;whiteSpace=wrap;html=1;aspect=fixed;strokeWidth=2;" vertex="1" parent="1">
          <mxGeometry x="780" y="293.25" width="50" height="50" as="geometry" />
        </mxCell>
        <mxCell id="1lAz4BmTCdN_ynABg-sg-23" style="rounded=0;orthogonalLoop=1;jettySize=auto;html=1;strokeWidth=1;dashed=1;startArrow=classic;startFill=1;exitX=0;exitY=1;exitDx=0;exitDy=0;" edge="1" parent="1" source="1lAz4BmTCdN_ynABg-sg-25" target="1lAz4BmTCdN_ynABg-sg-26">
          <mxGeometry relative="1" as="geometry">
            <mxPoint x="852" y="254.5" as="sourcePoint" />
          </mxGeometry>
        </mxCell>
        <mxCell id="1lAz4BmTCdN_ynABg-sg-24" style="edgeStyle=none;rounded=0;orthogonalLoop=1;jettySize=auto;html=1;entryX=0.5;entryY=0;entryDx=0;entryDy=0;startArrow=classic;startFill=1;strokeWidth=1;" edge="1" parent="1" target="1lAz4BmTCdN_ynABg-sg-28">
          <mxGeometry relative="1" as="geometry">
            <mxPoint x="920" y="254.5" as="sourcePoint" />
          </mxGeometry>
        </mxCell>
        <mxCell id="1lAz4BmTCdN_ynABg-sg-46" style="edgeStyle=orthogonalEdgeStyle;rounded=0;orthogonalLoop=1;jettySize=auto;html=1;exitX=1;exitY=0.5;exitDx=0;exitDy=0;startArrow=none;startFill=0;strokeWidth=1;" edge="1" parent="1" source="1lAz4BmTCdN_ynABg-sg-25">
          <mxGeometry relative="1" as="geometry">
            <mxPoint x="960" y="240" as="targetPoint" />
          </mxGeometry>
        </mxCell>
        <mxCell id="1lAz4BmTCdN_ynABg-sg-25" value="&lt;font style=&quot;font-size: 17px&quot;&gt;&lt;b&gt;T3&lt;/b&gt;&lt;/font&gt;" style="ellipse;whiteSpace=wrap;html=1;aspect=fixed;strokeWidth=2;" vertex="1" parent="1">
          <mxGeometry x="880" y="214.5" width="50" height="50" as="geometry" />
        </mxCell>
        <mxCell id="1lAz4BmTCdN_ynABg-sg-26" value="&lt;font style=&quot;font-size: 17px&quot;&gt;&lt;b&gt;L3&lt;/b&gt;&lt;/font&gt;" style="ellipse;whiteSpace=wrap;html=1;aspect=fixed;strokeWidth=2;" vertex="1" parent="1">
          <mxGeometry x="820" y="382" width="50" height="50" as="geometry" />
        </mxCell>
        <mxCell id="1lAz4BmTCdN_ynABg-sg-27" style="edgeStyle=none;rounded=0;orthogonalLoop=1;jettySize=auto;html=1;exitX=0;exitY=1;exitDx=0;exitDy=0;entryX=1;entryY=0.5;entryDx=0;entryDy=0;startArrow=classic;startFill=1;strokeWidth=1;" edge="1" parent="1" source="1lAz4BmTCdN_ynABg-sg-28" target="1lAz4BmTCdN_ynABg-sg-26">
          <mxGeometry relative="1" as="geometry" />
        </mxCell>
        <mxCell id="1lAz4BmTCdN_ynABg-sg-28" value="&lt;font style=&quot;font-size: 17px&quot;&gt;&lt;b&gt;E3&lt;/b&gt;&lt;/font&gt;" style="ellipse;whiteSpace=wrap;html=1;aspect=fixed;strokeWidth=2;" vertex="1" parent="1">
          <mxGeometry x="930" y="294.5" width="50" height="50" as="geometry" />
        </mxCell>
        <mxCell id="1lAz4BmTCdN_ynABg-sg-29" style="rounded=0;orthogonalLoop=1;jettySize=auto;html=1;strokeWidth=1;dashed=1;startArrow=classic;startFill=1;exitX=0;exitY=1;exitDx=0;exitDy=0;" edge="1" parent="1" source="1lAz4BmTCdN_ynABg-sg-31" target="1lAz4BmTCdN_ynABg-sg-32">
          <mxGeometry relative="1" as="geometry">
            <mxPoint x="1006" y="254.75" as="sourcePoint" />
          </mxGeometry>
        </mxCell>
        <mxCell id="1lAz4BmTCdN_ynABg-sg-30" style="edgeStyle=none;rounded=0;orthogonalLoop=1;jettySize=auto;html=1;entryX=0.5;entryY=0;entryDx=0;entryDy=0;startArrow=classic;startFill=1;strokeWidth=1;" edge="1" parent="1" target="1lAz4BmTCdN_ynABg-sg-34">
          <mxGeometry relative="1" as="geometry">
            <mxPoint x="1074" y="254.75" as="sourcePoint" />
          </mxGeometry>
        </mxCell>
        <mxCell id="1lAz4BmTCdN_ynABg-sg-31" value="&lt;font style=&quot;font-size: 17px&quot;&gt;&lt;b&gt;Tn&lt;/b&gt;&lt;/font&gt;" style="ellipse;whiteSpace=wrap;html=1;aspect=fixed;strokeWidth=2;" vertex="1" parent="1">
          <mxGeometry x="1034" y="214.75" width="50" height="50" as="geometry" />
        </mxCell>
        <mxCell id="1lAz4BmTCdN_ynABg-sg-32" value="&lt;font style=&quot;font-size: 17px&quot;&gt;&lt;b&gt;Ln&lt;/b&gt;&lt;/font&gt;" style="ellipse;whiteSpace=wrap;html=1;aspect=fixed;strokeWidth=2;" vertex="1" parent="1">
          <mxGeometry x="974" y="382.25" width="50" height="50" as="geometry" />
        </mxCell>
        <mxCell id="1lAz4BmTCdN_ynABg-sg-33" style="edgeStyle=none;rounded=0;orthogonalLoop=1;jettySize=auto;html=1;exitX=0;exitY=1;exitDx=0;exitDy=0;entryX=1;entryY=0.5;entryDx=0;entryDy=0;startArrow=classic;startFill=1;strokeWidth=1;" edge="1" parent="1" source="1lAz4BmTCdN_ynABg-sg-34" target="1lAz4BmTCdN_ynABg-sg-32">
          <mxGeometry relative="1" as="geometry" />
        </mxCell>
        <mxCell id="1lAz4BmTCdN_ynABg-sg-34" value="&lt;font style=&quot;font-size: 17px&quot;&gt;&lt;b&gt;En&lt;/b&gt;&lt;/font&gt;" style="ellipse;whiteSpace=wrap;html=1;aspect=fixed;strokeWidth=2;" vertex="1" parent="1">
          <mxGeometry x="1084" y="294.75" width="50" height="50" as="geometry" />
        </mxCell>
        <mxCell id="1lAz4BmTCdN_ynABg-sg-47" style="edgeStyle=orthogonalEdgeStyle;rounded=0;orthogonalLoop=1;jettySize=auto;html=1;startArrow=none;startFill=0;strokeWidth=1;entryX=0;entryY=0.5;entryDx=0;entryDy=0;" edge="1" parent="1" target="1lAz4BmTCdN_ynABg-sg-31">
          <mxGeometry relative="1" as="geometry">
            <mxPoint x="974" y="254" as="targetPoint" />
            <mxPoint x="1000" y="240" as="sourcePoint" />
          </mxGeometry>
        </mxCell>
        <mxCell id="1lAz4BmTCdN_ynABg-sg-49" style="edgeStyle=orthogonalEdgeStyle;rounded=0;orthogonalLoop=1;jettySize=auto;html=1;exitX=1;exitY=0.5;exitDx=0;exitDy=0;startArrow=none;startFill=0;strokeWidth=1;" edge="1" parent="1">
          <mxGeometry relative="1" as="geometry">
            <mxPoint x="1010" y="318.25" as="targetPoint" />
            <mxPoint x="980" y="317.75" as="sourcePoint" />
          </mxGeometry>
        </mxCell>
        <mxCell id="1lAz4BmTCdN_ynABg-sg-51" style="edgeStyle=orthogonalEdgeStyle;rounded=0;orthogonalLoop=1;jettySize=auto;html=1;exitX=1;exitY=0.5;exitDx=0;exitDy=0;startArrow=none;startFill=0;strokeWidth=1;" edge="1" parent="1">
          <mxGeometry relative="1" as="geometry">
            <mxPoint x="1084" y="318.25" as="targetPoint" />
            <mxPoint x="1054" y="317.75" as="sourcePoint" />
          </mxGeometry>
        </mxCell>
        <mxCell id="1lAz4BmTCdN_ynABg-sg-52" value="&lt;font size=&quot;1&quot;&gt;&lt;b style=&quot;font-size: 20px&quot;&gt;...&lt;/b&gt;&lt;/font&gt;" style="text;html=1;strokeColor=none;fillColor=none;align=center;verticalAlign=middle;whiteSpace=wrap;rounded=0;" vertex="1" parent="1">
          <mxGeometry x="960" y="225" width="40" height="20" as="geometry" />
        </mxCell>
        <mxCell id="1lAz4BmTCdN_ynABg-sg-54" value="&lt;font size=&quot;1&quot;&gt;&lt;b style=&quot;font-size: 20px&quot;&gt;...&lt;/b&gt;&lt;/font&gt;" style="text;html=1;strokeColor=none;fillColor=none;align=center;verticalAlign=middle;whiteSpace=wrap;rounded=0;" vertex="1" parent="1">
          <mxGeometry x="1014" y="302" width="40" height="20" as="geometry" />
        </mxCell>
        <mxCell id="1lAz4BmTCdN_ynABg-sg-56" value="&lt;font style=&quot;font-size: 17px&quot;&gt;&lt;b&gt;时空信息组合&lt;/b&gt;&lt;/font&gt;" style="text;html=1;strokeColor=none;fillColor=none;align=center;verticalAlign=middle;whiteSpace=wrap;rounded=0;dashed=1;" vertex="1" parent="1">
          <mxGeometry x="560" y="150" width="130" height="20" as="geometry" />
        </mxCell>
        <mxCell id="1lAz4BmTCdN_ynABg-sg-57" value="&lt;font style=&quot;font-size: 17px&quot;&gt;&lt;b&gt;时间类&lt;/b&gt;&lt;/font&gt;" style="text;html=1;strokeColor=none;fillColor=none;align=center;verticalAlign=middle;whiteSpace=wrap;rounded=0;dashed=1;" vertex="1" parent="1">
          <mxGeometry x="1100" y="229.75" width="130" height="20" as="geometry" />
        </mxCell>
        <mxCell id="1lAz4BmTCdN_ynABg-sg-58" value="&lt;font style=&quot;font-size: 17px&quot;&gt;&lt;b&gt;事件类&lt;/b&gt;&lt;/font&gt;" style="text;html=1;strokeColor=none;fillColor=none;align=center;verticalAlign=middle;whiteSpace=wrap;rounded=0;dashed=1;" vertex="1" parent="1">
          <mxGeometry x="1140" y="308.25" width="130" height="20" as="geometry" />
        </mxCell>
        <mxCell id="1lAz4BmTCdN_ynABg-sg-59" value="&lt;font style=&quot;font-size: 17px&quot;&gt;&lt;b&gt;地点类&lt;/b&gt;&lt;/font&gt;" style="text;html=1;strokeColor=none;fillColor=none;align=center;verticalAlign=middle;whiteSpace=wrap;rounded=0;dashed=1;" vertex="1" parent="1">
          <mxGeometry x="1070" y="392.5" width="130" height="20" as="geometry" />
        </mxCell>
      </root>
    </mxGraphModel>
  </diagram>
</mxfile>
